<mxfile host="Electron" agent="Mozilla/5.0 (Windows NT 10.0; Win64; x64) AppleWebKit/537.36 (KHTML, like Gecko) draw.io/26.0.7 Chrome/128.0.6613.186 Electron/32.2.5 Safari/537.36" version="26.0.7">
  <diagram name="分层架构图" id="layered-architecture-20250623">
    <mxGraphModel dx="1114" dy="785" grid="1" gridSize="10" guides="1" tooltips="1" connect="1" arrows="1" fold="1" page="1" pageScale="1" pageWidth="1600" pageHeight="1200" math="0" shadow="0">
      <root>
        <mxCell id="0" />
        <mxCell id="1" parent="0" />
        <mxCell id="e56cp1ZwvUcCsVKMdBaw-1" value="" style="rounded=0;whiteSpace=wrap;html=1;" vertex="1" parent="1">
          <mxGeometry x="260" y="70" width="630" height="420" as="geometry" />
        </mxCell>
        <mxCell id="e56cp1ZwvUcCsVKMdBaw-3" value="&lt;h1 style=&quot;margin-top: 0px;&quot;&gt;&amp;nbsp;Lusp_SyncFilesNotificationService&lt;/h1&gt;&lt;p&gt;职责：队列监控 + 数据序列化 + IPC通信&lt;/p&gt;" style="text;html=1;whiteSpace=wrap;overflow=hidden;rounded=0;" vertex="1" parent="1">
          <mxGeometry x="360" y="70" width="430" height="140" as="geometry" />
        </mxCell>
        <mxCell id="e56cp1ZwvUcCsVKMdBaw-6" value="" style="rounded=0;whiteSpace=wrap;html=1;" vertex="1" parent="1">
          <mxGeometry x="700" y="220" width="150" height="200" as="geometry" />
        </mxCell>
        <mxCell id="e56cp1ZwvUcCsVKMdBaw-7" value="" style="rounded=0;whiteSpace=wrap;html=1;" vertex="1" parent="1">
          <mxGeometry x="500" y="220" width="150" height="200" as="geometry" />
        </mxCell>
        <mxCell id="e56cp1ZwvUcCsVKMdBaw-8" value="" style="rounded=0;whiteSpace=wrap;html=1;" vertex="1" parent="1">
          <mxGeometry x="290" y="220" width="150" height="200" as="geometry" />
        </mxCell>
        <mxCell id="e56cp1ZwvUcCsVKMdBaw-9" value="队列监控线程(消费者" style="text;html=1;whiteSpace=wrap;overflow=hidden;rounded=0;" vertex="1" parent="1">
          <mxGeometry x="300" y="235" width="130" height="140" as="geometry" />
        </mxCell>
        <mxCell id="e56cp1ZwvUcCsVKMdBaw-10" value="&lt;span style=&quot;text-align: center;&quot;&gt;FlatBuff 序列化&lt;/span&gt;" style="text;html=1;whiteSpace=wrap;overflow=hidden;rounded=0;" vertex="1" parent="1">
          <mxGeometry x="510" y="230" width="130" height="150" as="geometry" />
        </mxCell>
        <mxCell id="e56cp1ZwvUcCsVKMdBaw-11" value="&lt;div style=&quot;text-align: center;&quot;&gt;&lt;span style=&quot;background-color: transparent;&quot;&gt;ASIO IPC 客户端&lt;/span&gt;&lt;/div&gt;&lt;div style=&quot;text-align: center;&quot;&gt;&lt;span style=&quot;background-color: transparent;&quot;&gt;&lt;br&gt;&lt;/span&gt;&lt;/div&gt;&lt;div style=&quot;text-align: center;&quot;&gt;&lt;span style=&quot;background-color: transparent;&quot;&gt;网络发送&lt;/span&gt;&lt;/div&gt;" style="text;html=1;whiteSpace=wrap;overflow=hidden;rounded=0;" vertex="1" parent="1">
          <mxGeometry x="710" y="230" width="130" height="150" as="geometry" />
        </mxCell>
        <mxCell id="e56cp1ZwvUcCsVKMdBaw-19" value="" style="html=1;shadow=0;dashed=0;align=center;verticalAlign=middle;shape=mxgraph.arrows2.arrow;dy=0.67;dx=20;notch=0;" vertex="1" parent="1">
          <mxGeometry x="650" y="290" width="50" height="60" as="geometry" />
        </mxCell>
        <mxCell id="e56cp1ZwvUcCsVKMdBaw-20" value="" style="html=1;shadow=0;dashed=0;align=center;verticalAlign=middle;shape=mxgraph.arrows2.arrow;dy=0.67;dx=20;notch=0;" vertex="1" parent="1">
          <mxGeometry x="440" y="290" width="60" height="60" as="geometry" />
        </mxCell>
      </root>
    </mxGraphModel>
  </diagram>
</mxfile>
